<svg width="350" height="330" viewBox="0 0 350 330" fill="none" xmlns="http://www.w3.org/2000/svg">
<g id="primary-award 1">
<g id="plane">
<g id="basket">
<path id="Vector" d="M175.44 249.28H223.8C226.863 249.278 229.831 248.216 232.201 246.275C234.57 244.334 236.195 241.633 236.8 238.63L240.54 220.31H172.36V246.2C172.363 247.016 172.688 247.798 173.265 248.375C173.842 248.952 174.624 249.277 175.44 249.28V249.28Z" stroke="white" stroke-width="2" stroke-linecap="round" stroke-linejoin="round"/>
<path id="Vector_2" d="M235.79 241.69H226.57C224.371 241.682 222.265 240.803 220.713 239.245C219.161 237.688 218.29 235.579 218.29 233.38V220.31" stroke="white" stroke-width="2" stroke-miterlimit="10" stroke-linecap="round"/>
<path id="Vector_3" d="M204.25 231.88H202.2C201.288 231.885 200.416 232.251 199.773 232.898C199.131 233.544 198.77 234.418 198.77 235.33V238.25C198.77 239.162 199.131 240.036 199.773 240.682C200.416 241.329 201.288 241.695 202.2 241.7H204.25C205.162 241.695 206.034 241.329 206.677 240.682C207.319 240.036 207.68 239.162 207.68 238.25V235.33C207.681 234.878 207.594 234.431 207.422 234.013C207.25 233.595 206.998 233.215 206.68 232.895C206.361 232.574 205.983 232.32 205.566 232.146C205.149 231.972 204.702 231.881 204.25 231.88V231.88Z" stroke="white" stroke-width="2" stroke-linecap="round" stroke-linejoin="round"/>
<path id="Vector_4" d="M185.64 231.88H183.59C182.678 231.885 181.806 232.251 181.163 232.898C180.521 233.544 180.16 234.418 180.16 235.33V238.25C180.16 239.162 180.521 240.036 181.163 240.682C181.806 241.329 182.678 241.695 183.59 241.7H185.64C186.552 241.695 187.424 241.329 188.067 240.682C188.709 240.036 189.07 239.162 189.07 238.25V235.33C189.07 234.418 188.709 233.544 188.067 232.898C187.424 232.251 186.552 231.885 185.64 231.88V231.88Z" stroke="white" stroke-width="2" stroke-linecap="round" stroke-linejoin="round"/>
</g>
<path id="Vector_5" d="M205 227.08C248.38 227.08 279.86 211.53 279.86 190.08C279.86 168.63 248.38 153.08 205 153.08C177.06 153.08 149.64 166.61 131.54 177.95C129.493 179.238 127.805 181.023 126.636 183.14C125.466 185.257 124.853 187.636 124.853 190.055C124.853 192.474 125.466 194.853 126.636 196.97C127.805 199.087 129.493 200.872 131.54 202.16C149.63 213.49 177.06 227.03 205 227.03" fill="#068E4D"/>
<path id="Vector_6" d="M205 227.08C248.38 227.08 279.86 211.53 279.86 190.08C279.86 168.63 248.38 153.08 205 153.08C177.06 153.08 149.64 166.61 131.54 177.95C129.493 179.238 127.805 181.023 126.636 183.14C125.466 185.257 124.853 187.636 124.853 190.055C124.853 192.474 125.466 194.853 126.636 196.97C127.805 199.087 129.493 200.872 131.54 202.16C149.63 213.54 177.06 227.08 205 227.08Z" stroke="white" stroke-width="2"/>
<path id="Vector_7" d="M205 176.09C176.77 176.09 148.93 181.85 132.19 186.09C128.24 187.09 126.19 188.75 126.11 190.43C126.028 188.159 126.546 185.908 127.612 183.901C128.678 181.894 130.253 180.204 132.18 179C148.92 168.5 176.76 154.32 204.99 154.32C249.8 154.32 278.63 170.32 278.63 190.07C278.63 190.19 278.63 190.31 278.63 190.44C278.26 182.49 249.53 176.07 205 176.07" fill="#36E69A"/>
<path id="Vector_8" d="M132.18 195.12C148.92 199.39 176.76 205.12 204.99 205.12C249.13 205.12 277.74 198.8 278.59 190.94C277.73 210.28 249.14 225.8 204.99 225.8C176.76 225.8 148.92 211.61 132.18 201.12C130.44 200.025 128.988 198.53 127.944 196.759C126.9 194.988 126.295 192.993 126.18 190.94C126.44 192.55 128.44 194.12 132.18 195.08" fill="#068E4D"/>
<path id="middle" d="M132.013 189.453C148.818 183.281 176.766 175 205.105 175C249.807 175 278.649 184.293 279 195.783C279 196.029 279 196.275 279 196.52C278.147 207.88 249.436 217 205.115 217C176.776 217 148.828 208.675 132.023 202.547C128.219 201.102 126.211 198.891 126 196.578V195.841C126.131 193.398 128.158 190.985 132.124 189.525" fill="#25B774"/>
<path id="Vector_9" d="M123.23 173.34H132.39C132.823 173.34 133.252 173.425 133.651 173.591C134.051 173.757 134.414 174.001 134.72 174.307C135.026 174.614 135.268 174.978 135.432 175.378C135.597 175.778 135.681 176.207 135.68 176.64V182.35C135.681 182.783 135.597 183.212 135.432 183.612C135.268 184.012 135.026 184.376 134.72 184.683C134.414 184.989 134.051 185.233 133.651 185.399C133.252 185.565 132.823 185.65 132.39 185.65H115.57C115.22 185.65 114.884 185.511 114.637 185.263C114.389 185.016 114.25 184.68 114.25 184.33V182.33C114.25 179.943 115.198 177.654 116.886 175.966C118.574 174.278 120.863 173.33 123.25 173.33" fill="#068E4D"/>
<path id="Vector_10" d="M123.23 173.34H132.39C132.823 173.34 133.252 173.425 133.651 173.591C134.051 173.757 134.414 174.001 134.72 174.307C135.026 174.614 135.268 174.978 135.432 175.378C135.597 175.778 135.681 176.207 135.68 176.64V182.35C135.681 182.783 135.597 183.212 135.432 183.612C135.268 184.012 135.026 184.376 134.72 184.683C134.414 184.989 134.051 185.233 133.651 185.399C133.252 185.565 132.823 185.65 132.39 185.65H115.57C115.22 185.65 114.884 185.511 114.637 185.263C114.389 185.016 114.25 184.68 114.25 184.33V182.33C114.253 179.948 115.199 177.665 116.882 175.98C118.566 174.294 120.848 173.345 123.23 173.34V173.34Z" stroke="white" stroke-width="2" stroke-linecap="round" stroke-linejoin="round"/>
<path id="Vector_11" d="M123.23 207.39H132.39C132.823 207.39 133.252 207.305 133.651 207.139C134.051 206.973 134.414 206.729 134.72 206.423C135.026 206.116 135.268 205.752 135.432 205.352C135.597 204.952 135.681 204.523 135.68 204.09V198.38C135.681 197.947 135.597 197.518 135.432 197.118C135.268 196.718 135.026 196.354 134.72 196.047C134.414 195.741 134.051 195.497 133.651 195.331C133.252 195.165 132.823 195.08 132.39 195.08H115.57C115.22 195.08 114.884 195.219 114.637 195.467C114.389 195.714 114.25 196.05 114.25 196.4V198.4C114.25 200.787 115.198 203.076 116.886 204.764C118.574 206.452 120.863 207.4 123.25 207.4" fill="#068E4D"/>
<path id="Vector_12" d="M123.23 207.39H132.39C132.823 207.39 133.252 207.305 133.651 207.139C134.051 206.973 134.414 206.729 134.72 206.423C135.026 206.116 135.268 205.752 135.432 205.352C135.597 204.952 135.681 204.523 135.68 204.09V198.38C135.681 197.947 135.597 197.518 135.432 197.118C135.268 196.718 135.026 196.354 134.72 196.047C134.414 195.741 134.051 195.497 133.651 195.331C133.252 195.165 132.823 195.08 132.39 195.08H115.57C115.22 195.08 114.884 195.219 114.637 195.467C114.389 195.714 114.25 196.05 114.25 196.4V198.4C114.253 200.782 115.199 203.065 116.882 204.75C118.566 206.436 120.848 207.385 123.23 207.39V207.39Z" stroke="white" stroke-width="2" stroke-linecap="round" stroke-linejoin="round"/>
<path id="Vector_13" d="M123.23 173.34H132.39C132.823 173.34 133.252 173.425 133.651 173.591C134.051 173.757 134.414 174.001 134.72 174.307C135.026 174.614 135.268 174.978 135.432 175.378C135.597 175.778 135.681 176.207 135.68 176.64V182.35C135.681 182.783 135.597 183.212 135.432 183.612C135.268 184.012 135.026 184.376 134.72 184.683C134.414 184.989 134.051 185.233 133.651 185.399C133.252 185.565 132.823 185.65 132.39 185.65H115.57C115.22 185.65 114.884 185.511 114.637 185.263C114.389 185.016 114.25 184.68 114.25 184.33V182.33C114.25 179.943 115.198 177.654 116.886 175.966C118.574 174.278 120.863 173.33 123.25 173.33" fill="#068E4D"/>
<path id="Vector_14" d="M123.23 173.34H132.39C132.823 173.34 133.252 173.425 133.651 173.591C134.051 173.757 134.414 174.001 134.72 174.307C135.026 174.614 135.268 174.978 135.432 175.378C135.597 175.778 135.681 176.207 135.68 176.64V182.35C135.681 182.783 135.597 183.212 135.432 183.612C135.268 184.012 135.026 184.376 134.72 184.683C134.414 184.989 134.051 185.233 133.651 185.399C133.252 185.565 132.823 185.65 132.39 185.65H115.57C115.22 185.65 114.884 185.511 114.637 185.263C114.389 185.016 114.25 184.68 114.25 184.33V182.33C114.253 179.948 115.199 177.665 116.882 175.98C118.566 174.294 120.848 173.345 123.23 173.34V173.34Z" stroke="white" stroke-width="2" stroke-linecap="round" stroke-linejoin="round"/>
<path id="Vector_15" d="M123.23 207.39H132.39C132.823 207.39 133.252 207.305 133.651 207.139C134.051 206.973 134.414 206.729 134.72 206.423C135.026 206.116 135.268 205.752 135.432 205.352C135.597 204.952 135.681 204.523 135.68 204.09V198.38C135.681 197.947 135.597 197.518 135.432 197.118C135.268 196.718 135.026 196.354 134.72 196.047C134.414 195.741 134.051 195.497 133.651 195.331C133.252 195.165 132.823 195.08 132.39 195.08H115.57C115.22 195.08 114.884 195.219 114.637 195.467C114.389 195.714 114.25 196.05 114.25 196.4V198.4C114.25 200.787 115.198 203.076 116.886 204.764C118.574 206.452 120.863 207.4 123.25 207.4" fill="#068E4D"/>
<path id="Vector_16" d="M123.23 207.39H132.39C132.823 207.39 133.252 207.305 133.651 207.139C134.051 206.973 134.414 206.729 134.72 206.423C135.026 206.116 135.268 205.752 135.432 205.352C135.597 204.952 135.681 204.523 135.68 204.09V198.38C135.681 197.947 135.597 197.518 135.432 197.118C135.268 196.718 135.026 196.354 134.72 196.047C134.414 195.741 134.051 195.497 133.651 195.331C133.252 195.165 132.823 195.08 132.39 195.08H115.57C115.22 195.08 114.884 195.219 114.637 195.467C114.389 195.714 114.25 196.05 114.25 196.4V198.4C114.253 200.782 115.199 203.065 116.882 204.75C118.566 206.436 120.848 207.385 123.23 207.39V207.39Z" stroke="white" stroke-width="2" stroke-linecap="round" stroke-linejoin="round"/>
</g>
<path id="Vector_17" d="M68.95 107.8H131.86" stroke="white" stroke-width="2" stroke-miterlimit="10" stroke-linecap="round"/>
<g id="Group">
<path id="Vector_18" d="M41.77 97.54H77.06C77.06 94.2513 78.3664 91.0973 80.6919 88.7719C83.0173 86.4464 86.1713 85.14 89.46 85.14C92.7487 85.14 95.9027 86.4464 98.2281 88.7719C100.554 91.0973 101.86 94.2513 101.86 97.54H119.79" stroke="white" stroke-width="2" stroke-miterlimit="10" stroke-linecap="round"/>
</g>
<path id="Vector_19" d="M258.96 93.19H298.74" stroke="white" stroke-width="2" stroke-miterlimit="10" stroke-linecap="round"/>
<g id="Group_2">
<path id="Vector_20" d="M278.75 82.91H251.39C251.39 79.6213 250.084 76.4673 247.758 74.1419C245.433 71.8164 242.279 70.51 238.99 70.51C235.701 70.51 232.547 71.8164 230.222 74.1419C227.896 76.4673 226.59 79.6213 226.59 82.91H208.65" stroke="white" stroke-width="2" stroke-miterlimit="10" stroke-linecap="round"/>
<path id="Vector_21" d="M287.01 82.91H309.21" stroke="white" stroke-width="2" stroke-miterlimit="10" stroke-linecap="round"/>
</g>
<path id="Vector_22" d="M106.25 179.49H84.05" stroke="white" stroke-width="2" stroke-miterlimit="10" stroke-linecap="round"/>
<path id="Vector_23" d="M106.25 201.23H84.05" stroke="white" stroke-width="2" stroke-miterlimit="10" stroke-linecap="round"/>
<path id="Vector_24" d="M106.25 190.98H68.77" stroke="white" stroke-width="2" stroke-miterlimit="10" stroke-linecap="round"/>
<g id="Group_3">
<path id="Vector_25" d="M289.94 327.88H244.88L212.8 296.58C212.459 296.292 212.027 296.134 211.58 296.134C211.133 296.134 210.701 296.292 210.36 296.58L200.16 306.81C199.847 307.08 199.448 307.229 199.035 307.229C198.622 307.229 198.223 307.08 197.91 306.81L178.91 286.64C178.477 286.273 177.928 286.072 177.36 286.072C176.792 286.072 176.243 286.273 175.81 286.64L149.39 312.28C149.078 312.552 148.679 312.702 148.265 312.702C147.851 312.702 147.452 312.552 147.14 312.28L144.51 309.36C144.195 309.071 143.783 308.911 143.355 308.911C142.927 308.911 142.515 309.071 142.2 309.36L124.63 329H80.78" stroke="white" stroke-width="2" stroke-miterlimit="10" stroke-linecap="round"/>
<path id="Vector_26" d="M289.94 328H200.15C199.29 328 198.59 328 197.9 328H178.9C177.4 328 176.67 328 175.8 328H143.5C142.41 328 141.84 328 141.19 328H80.78" stroke="white" stroke-width="2" stroke-miterlimit="10" stroke-linecap="round"/>
</g>
</g>
</svg>
